<svg width="22" height="22" viewBox="0 0 22 22" fill="none" xmlns="http://www.w3.org/2000/svg">
<g id="vuesax/outline/audio-square" clip-path="url(#clip0_39_156)">
<path id="Vector" fill-rule="evenodd" clip-rule="evenodd" d="M8.25016 20.8541C3.27266 20.8541 1.146 18.7275 1.146 13.75V8.24998C1.146 3.27248 3.27266 1.14581 8.25016 1.14581H13.7502C18.7277 1.14581 20.8543 3.27248 20.8543 8.24998V13.75C20.8543 18.7275 18.7277 20.8541 13.7502 20.8541H8.25016ZM2.521 8.24998V13.75C2.521 17.9758 4.02433 19.4791 8.25016 19.4791H13.7502C17.976 19.4791 19.4793 17.9758 19.4793 13.75V8.24998C19.4793 4.02415 17.976 2.52081 13.7502 2.52081H8.25016C4.02433 2.52081 2.521 4.02415 2.521 8.24998Z" fill="white"/>
<path id="Vector_2" fill-rule="evenodd" clip-rule="evenodd" d="M6.1875 13.9151C6.1875 12.4667 7.37 11.2842 8.81833 11.2842C10.2667 11.2842 11.4492 12.4667 11.4492 13.9151C11.4492 15.3634 10.2667 16.5459 8.81833 16.5459C7.37 16.5459 6.1875 15.3634 6.1875 13.9151ZM7.5625 13.9242C7.5625 14.6117 8.12166 15.1801 8.81833 15.1801C9.50583 15.1801 10.0742 14.6209 10.0742 13.9242C10.0742 13.2276 9.50583 12.6684 8.81833 12.6684C8.13083 12.6684 7.5625 13.2276 7.5625 13.9242Z" fill="white"/>
<path id="Vector_3" d="M10.0742 13.915V7.1225C10.0742 6.74666 10.3859 6.435 10.7617 6.435C11.1376 6.435 11.4492 6.74666 11.4492 7.1225V13.915C11.4492 14.3 11.1376 14.6025 10.7617 14.6025C10.3859 14.6025 10.0742 14.2908 10.0742 13.915Z" fill="white"/>
<path id="Vector_4" fill-rule="evenodd" clip-rule="evenodd" d="M13.6309 10.3764L11.4859 9.66141C10.6793 9.39558 10.0742 8.55228 10.0742 7.69978V7.13146C10.0742 6.55396 10.3126 6.04978 10.7342 5.74728C11.1559 5.44478 11.7059 5.37143 12.2559 5.55476L14.4009 6.26979C15.2076 6.53562 15.8126 7.37891 15.8126 8.23141V8.79974C15.8126 9.37724 15.5743 9.88142 15.1526 10.1839C14.8868 10.3764 14.5659 10.4773 14.2267 10.4773C14.0342 10.4773 13.8326 10.4406 13.6309 10.3764ZM11.5317 6.85641C11.4767 6.89308 11.44 6.99395 11.44 7.12228V7.69061C11.44 7.94728 11.6784 8.26808 11.9167 8.35058L14.0618 9.06561C14.1809 9.10228 14.2909 9.10228 14.3459 9.06561C14.4009 9.02894 14.4376 8.92807 14.4376 8.79974V8.23141C14.4376 7.97474 14.1992 7.65394 13.9609 7.57144L11.8159 6.85641C11.7609 6.83808 11.6967 6.82894 11.6509 6.82894C11.6051 6.82894 11.5592 6.83808 11.5317 6.85641Z" fill="white"/>
</g>
<defs>
<clipPath id="clip0_39_156">
<rect width="22" height="22" fill="white"/>
</clipPath>
</defs>
</svg>
