<svg width="70" height="70" viewBox="0 0 70 70" fill="none" xmlns="http://www.w3.org/2000/svg">
<g id="Users / profile">
<path id="Vector" d="M34.9999 5.83337C29.343 5.84412 23.8113 7.4997 19.0785 10.5984C14.3458 13.6972 10.6163 18.1054 8.34435 23.286C6.0724 28.4667 5.35604 34.1963 6.28252 39.7768C7.209 45.3574 9.73833 50.5481 13.5624 54.7167C16.2937 57.6773 19.6085 60.04 23.2981 61.6561C26.9877 63.2721 30.972 64.1064 34.9999 64.1064C39.0279 64.1064 43.0122 63.2721 46.7018 61.6561C50.3914 60.04 53.7062 57.6773 56.4374 54.7167C60.2616 50.5481 62.7909 45.3574 63.7174 39.7768C64.6438 34.1963 63.9275 28.4667 61.6555 23.286C59.3836 18.1054 55.6541 13.6972 50.9214 10.5984C46.1886 7.4997 40.6569 5.84412 34.9999 5.83337ZM34.9999 58.3334C28.958 58.3242 23.1551 55.9717 18.8124 51.7709C20.1309 48.5612 22.3738 45.8159 25.2561 43.8839C28.1384 41.9519 31.53 40.9203 34.9999 40.9203C38.4699 40.9203 41.8615 41.9519 44.7438 43.8839C47.6261 45.8159 49.869 48.5612 51.1874 51.7709C46.8448 55.9717 41.0419 58.3242 34.9999 58.3334ZM29.1666 29.1667C29.1666 28.013 29.5087 26.8852 30.1497 25.9259C30.7907 24.9666 31.7017 24.2189 32.7676 23.7774C33.8335 23.3359 35.0064 23.2204 36.138 23.4455C37.2695 23.6705 38.3089 24.2261 39.1247 25.0419C39.9405 25.8577 40.4961 26.8971 40.7212 28.0287C40.9463 29.1602 40.8307 30.3331 40.3892 31.399C39.9477 32.4649 39.2001 33.376 38.2408 34.0169C37.2815 34.6579 36.1537 35 34.9999 35C33.4528 35 31.9691 34.3855 30.8752 33.2915C29.7812 32.1975 29.1666 30.7138 29.1666 29.1667ZM55.1541 46.6667C52.5482 42.2093 48.5374 38.7422 43.7499 36.8084C45.235 35.1245 46.2026 33.0478 46.5367 30.8276C46.8708 28.6073 46.5571 26.3379 45.6334 24.2915C44.7096 22.2451 43.215 20.5088 41.3288 19.2908C39.4427 18.0728 37.2452 17.4249 34.9999 17.4249C32.7547 17.4249 30.5572 18.0728 28.671 19.2908C26.7849 20.5088 25.2903 22.2451 24.3665 24.2915C23.4427 26.3379 23.1291 28.6073 23.4632 30.8276C23.7972 33.0478 24.7649 35.1245 26.2499 36.8084C21.4625 38.7422 17.4517 42.2093 14.8458 46.6667C12.7689 43.1291 11.6716 39.1022 11.6666 35C11.6666 28.8117 14.1249 22.8767 18.5008 18.5009C22.8766 14.125 28.8116 11.6667 34.9999 11.6667C41.1883 11.6667 47.1232 14.125 51.4991 18.5009C55.8749 22.8767 58.3333 28.8117 58.3333 35C58.3283 39.1022 57.2309 43.1291 55.1541 46.6667Z" fill="white"/>
</g>
</svg>
