<svg width="22" height="22" viewBox="0 0 22 22" fill="none" xmlns="http://www.w3.org/2000/svg">
<g id="vuesax/outline/book-saved" clip-path="url(#clip0_39_135)">
<path id="Vector" fill-rule="evenodd" clip-rule="evenodd" d="M10.2206 20.0475C8.50646 19.1125 5.49978 18.1225 3.61145 17.875L3.34563 17.8383C2.1448 17.6917 1.15479 16.5641 1.15479 15.345V4.27161C1.15479 3.54745 1.43896 2.88748 1.96146 2.41081C2.48396 1.93414 3.16226 1.70497 3.87726 1.76913C5.88476 1.93413 8.9281 2.94248 10.6514 4.01498L10.8714 4.14332C10.9356 4.17082 11.0731 4.17999 11.1281 4.14332L11.2748 4.05162C11.8889 3.66662 12.6589 3.29078 13.5023 2.95161C13.7131 2.86911 13.9514 2.89663 14.1439 3.02496C14.3364 3.15329 14.4465 3.36412 14.4465 3.59329V6.04995L15.2073 5.54579C15.4365 5.38996 15.7389 5.38996 15.9681 5.54579L16.7289 6.04995V2.54833C16.7289 2.21833 16.9673 1.93412 17.2881 1.86995C17.5539 1.82412 17.8198 1.78747 18.0581 1.76913C18.0765 1.76913 18.1498 1.76913 18.1681 1.76913C18.8373 1.71413 19.5248 1.94332 20.0381 2.41999C20.5606 2.89665 20.8448 3.55662 20.8448 4.28079V15.345C20.8448 16.5733 19.8548 17.6917 18.6448 17.8383L18.3423 17.875C16.454 18.1225 13.4289 19.1216 11.7514 20.0475C11.5498 20.1758 11.2748 20.24 10.9998 20.24C10.7248 20.24 10.4498 20.1758 10.2206 20.0475ZM2.87812 3.41912C2.64896 3.62995 2.52061 3.93245 2.52061 4.27161V15.345C2.52061 15.8858 2.98813 16.4083 3.51063 16.4816L3.78561 16.5183C5.84811 16.7933 9.01062 17.8291 10.844 18.8375C10.9265 18.8741 11.0456 18.8833 11.0914 18.865C12.9339 17.8475 16.1056 16.8025 18.1773 16.5275L18.4889 16.4908C19.0114 16.4266 19.4789 15.895 19.4789 15.3541V4.28997C19.4789 3.9508 19.3506 3.65747 19.1214 3.43747C18.8923 3.22664 18.5715 3.1258 18.2415 3.14413C18.214 3.14413 18.1315 3.14413 18.1131 3.14413V7.33331C18.1131 7.58997 17.9756 7.81911 17.7464 7.93828C17.5173 8.05745 17.2515 8.0483 17.0406 7.90163L15.5923 6.93915L14.1439 7.90163C13.9331 8.03913 13.6673 8.05745 13.4381 7.93828C13.2181 7.81911 13.0715 7.58997 13.0715 7.33331V4.64748C12.6773 4.83998 12.3198 5.03247 12.0081 5.21581L11.8614 5.30745C11.3573 5.61912 10.6423 5.61913 10.1565 5.31663L9.93647 5.17916C8.3873 4.20749 5.56393 3.27245 3.76726 3.12578C3.72143 3.12578 3.68476 3.12578 3.64809 3.12578C3.35476 3.12578 3.08896 3.22662 2.87812 3.41912Z" fill="white"/>
<path id="Vector_2" d="M10.3125 18.7827V5.03271C10.3125 4.65688 10.6242 4.34521 11 4.34521C11.3758 4.34521 11.6875 4.65688 11.6875 5.03271V18.7827C11.6875 19.1677 11.3758 19.4702 11 19.4702C10.6242 19.4702 10.3125 19.1585 10.3125 18.7827Z" fill="white"/>
<path id="Vector_3" fill-rule="evenodd" clip-rule="evenodd" d="M17.0317 7.90165L15.5833 6.93916L14.135 7.90165C13.9242 8.03915 13.6584 8.05747 13.4292 7.9383C13.2092 7.81913 13.0625 7.58999 13.0625 7.33332V3.59331C13.0625 3.30914 13.2366 3.06163 13.4933 2.95163C14.7583 2.44746 16.1425 2.0533 17.3067 1.86997C17.5083 1.8333 17.71 1.89751 17.8658 2.02584C18.0217 2.15418 18.1042 2.34668 18.1042 2.54835V7.33332C18.1042 7.58999 17.9666 7.81913 17.7375 7.9383C17.6366 7.9933 17.5267 8.02082 17.4167 8.02082C17.2792 8.02082 17.1508 7.98415 17.0317 7.90165ZM15.9683 5.54581L16.7292 6.04997V3.38249C15.9958 3.54749 15.1983 3.78583 14.4375 4.06999V6.04997L15.1983 5.54581C15.3175 5.46331 15.455 5.42664 15.5833 5.42664C15.7117 5.42664 15.8492 5.46331 15.9683 5.54581Z" fill="white"/>
</g>
<defs>
<clipPath id="clip0_39_135">
<rect width="22" height="22" fill="white"/>
</clipPath>
</defs>
</svg>
