<svg width="22" height="22" viewBox="0 0 22 22" fill="none" xmlns="http://www.w3.org/2000/svg">
<g id="Multimedia / cd">
<path id="Vector" d="M11.0002 1.83337C9.18717 1.83337 7.41489 2.37099 5.90744 3.37824C4.39999 4.38548 3.22507 5.81712 2.53127 7.49211C1.83747 9.1671 1.65594 11.0102 2.00964 12.7884C2.36333 14.5665 3.23637 16.1999 4.51835 17.4819C5.80034 18.7638 7.43368 19.6369 9.21184 19.9906C10.99 20.3443 12.8331 20.1627 14.5081 19.4689C16.1831 18.7751 17.6147 17.6002 18.622 16.0928C19.6292 14.5853 20.1668 12.813 20.1668 11C20.1668 9.79626 19.9297 8.60426 19.4691 7.49211C19.0084 6.37996 18.3332 5.36943 17.482 4.51823C16.6308 3.66702 15.6202 2.99181 14.5081 2.53114C13.3959 2.07048 12.204 1.83337 11.0002 1.83337ZM11.0002 18.3334C9.54977 18.3334 8.13195 17.9033 6.92598 17.0975C5.72002 16.2917 4.78009 15.1464 4.22505 13.8064C3.67001 12.4664 3.52478 10.9919 3.80774 9.56938C4.0907 8.14685 4.78913 6.84018 5.81472 5.81459C6.8403 4.78901 8.14698 4.09057 9.5695 3.80762C10.992 3.52466 12.4665 3.66988 13.8065 4.22492C15.1465 4.77997 16.2918 5.7199 17.0976 6.92586C17.9034 8.13182 18.3335 9.54964 18.3335 11C18.3335 12.945 17.5609 14.8102 16.1856 16.1855C14.8103 17.5608 12.9451 18.3334 11.0002 18.3334ZM11.0002 8.25004C10.4563 8.25004 9.92458 8.41133 9.47235 8.7135C9.02011 9.01567 8.66764 9.44516 8.4595 9.94766C8.25136 10.4502 8.1969 11.0031 8.30301 11.5365C8.40912 12.07 8.67103 12.56 9.05562 12.9446C9.44022 13.3292 9.93022 13.5911 10.4637 13.6972C10.9971 13.8033 11.55 13.7488 12.0525 13.5407C12.555 13.3326 12.9845 12.9801 13.2867 12.5279C13.5889 12.0756 13.7502 11.5439 13.7502 11C13.7502 10.2707 13.4604 9.57122 12.9447 9.0555C12.429 8.53977 11.7295 8.25004 11.0002 8.25004ZM11.0002 11.9167C10.8189 11.9167 10.6416 11.8629 10.4909 11.7622C10.3401 11.6615 10.2227 11.5183 10.1533 11.3508C10.0839 11.1833 10.0657 10.999 10.1011 10.8212C10.1365 10.6434 10.2238 10.4801 10.352 10.3519C10.4802 10.2237 10.6435 10.1364 10.8213 10.101C10.9992 10.0656 11.1835 10.0838 11.351 10.1532C11.5185 10.2225 11.6616 10.34 11.7623 10.4908C11.8631 10.6415 11.9168 10.8187 11.9168 11C11.9168 11.2432 11.8203 11.4763 11.6483 11.6482C11.4764 11.8201 11.2433 11.9167 11.0002 11.9167Z" fill="white"/>
</g>
</svg>
