<svg width="22" height="22" viewBox="0 0 22 22" fill="none" xmlns="http://www.w3.org/2000/svg">
<g id="music-note 1">
<path id="Vector" d="M12.375 17.875C12.375 19.3944 10.835 20.625 8.9375 20.625C7.04 20.625 5.5 19.3944 5.5 17.875C5.5 16.3556 7.04 15.125 8.9375 15.125C10.835 15.125 12.375 16.3556 12.375 17.875Z" fill="white"/>
<path id="Vector_2" fill-rule="evenodd" clip-rule="evenodd" d="M12.375 4.125V17.875H11V4.125H12.375Z" fill="white"/>
<path id="Vector_3" d="M11 3.87751C11.0002 3.55976 11.1104 3.25188 11.312 3.00623C11.5135 2.76057 11.7939 2.59229 12.1055 2.53001L16.2305 1.70501C16.4299 1.66516 16.6357 1.67003 16.833 1.71927C17.0303 1.76851 17.2142 1.8609 17.3715 1.98979C17.5288 2.11867 17.6555 2.28084 17.7426 2.46461C17.8297 2.64837 17.8749 2.84916 17.875 3.05251V5.50001L11 6.87501V3.87751Z" fill="white"/>
</g>
</svg>
