<svg width="20" height="21" viewBox="0 0 20 21" fill="none" xmlns="http://www.w3.org/2000/svg">
<g id="music-note-2--music-audio-note-entertainment">
<g id="music-note-2--music-audio-note-entertainment_2">
<path id="Vector" d="M4.21449 19.2127C5.63466 19.2127 6.78592 17.9975 6.78592 16.4984C6.78592 14.9995 5.63466 13.7842 4.21449 13.7842C2.79433 13.7842 1.64307 14.9995 1.64307 16.4984C1.64307 17.9975 2.79433 19.2127 4.21449 19.2127Z" stroke="white" stroke-width="2" stroke-linecap="round" stroke-linejoin="round"/>
<path id="Vector_2" d="M15.7858 15.8199C17.206 15.8199 18.3572 14.6047 18.3572 13.1056C18.3572 11.6066 17.206 10.3914 15.7858 10.3914C14.3656 10.3914 13.2144 11.6066 13.2144 13.1056C13.2144 14.6047 14.3656 15.8199 15.7858 15.8199Z" stroke="white" stroke-width="2" stroke-linecap="round" stroke-linejoin="round"/>
<path id="Vector_3" d="M18.3576 13.1057V2.46566C18.357 2.36182 18.3339 2.25952 18.2899 2.1666C18.2461 2.07368 18.1826 1.99264 18.1043 1.92971C18.0261 1.86678 17.9352 1.82364 17.8386 1.80363C17.7421 1.78361 17.6426 1.78723 17.5476 1.81423L7.26185 4.82709C7.12592 4.86573 7.00577 4.95037 6.91983 5.06805C6.8339 5.18574 6.78692 5.32994 6.78613 5.47852V16.4986" stroke="white" stroke-width="2" stroke-linecap="round" stroke-linejoin="round"/>
<path id="Vector_4" d="M6.78613 9.03421L18.3576 5.64136" stroke="white" stroke-width="2" stroke-linecap="round" stroke-linejoin="round"/>
</g>
</g>
</svg>
