<svg width="22" height="22" viewBox="0 0 22 22" fill="none" xmlns="http://www.w3.org/2000/svg">
<g id="Users / profile">
<path id="Vector" d="M10.9998 1.83337C9.22195 1.83675 7.4834 2.35708 5.99597 3.33097C4.50854 4.30486 3.33641 5.69029 2.62237 7.31849C1.90833 8.9467 1.68319 10.7474 1.97437 12.5013C2.26554 14.2552 3.06048 15.8866 4.26234 17.1967C5.12073 18.1272 6.16254 18.8697 7.32212 19.3776C8.4817 19.8855 9.73391 20.1478 10.9998 20.1478C12.2658 20.1478 13.518 19.8855 14.6776 19.3776C15.8371 18.8697 16.879 18.1272 17.7373 17.1967C18.9392 15.8866 19.7341 14.2552 20.0253 12.5013C20.3165 10.7474 20.0914 8.9467 19.3773 7.31849C18.6633 5.69029 17.4911 4.30486 16.0037 3.33097C14.5163 2.35708 12.7777 1.83675 10.9998 1.83337ZM10.9998 18.3334C9.10093 18.3305 7.27718 17.5911 5.91234 16.2709C6.32671 15.2621 7.03162 14.3993 7.93749 13.7921C8.84336 13.1849 9.90929 12.8607 10.9998 12.8607C12.0904 12.8607 13.1563 13.1849 14.0622 13.7921C14.9681 14.3993 15.673 15.2621 16.0873 16.2709C14.7225 17.5911 12.8987 18.3305 10.9998 18.3334ZM9.16651 9.16671C9.16651 8.80411 9.27403 8.44965 9.47548 8.14816C9.67693 7.84667 9.96326 7.61169 10.2983 7.47293C10.6333 7.33417 11.0019 7.29786 11.3575 7.3686C11.7131 7.43934 12.0398 7.61395 12.2962 7.87034C12.5526 8.12674 12.7272 8.45341 12.7979 8.80904C12.8687 9.16467 12.8324 9.53329 12.6936 9.86829C12.5549 10.2033 12.3199 10.4896 12.0184 10.6911C11.7169 10.8925 11.3624 11 10.9998 11C10.5136 11 10.0473 10.8069 9.70348 10.4631C9.35966 10.1193 9.16651 9.65294 9.16651 9.16671ZM17.334 14.6667C16.515 13.2658 15.2545 12.1761 13.7498 11.5684C14.2166 11.0391 14.5207 10.3865 14.6257 9.68869C14.7307 8.99091 14.6321 8.27764 14.3418 7.6345C14.0515 6.99135 13.5817 6.44564 12.9889 6.06284C12.3961 5.68005 11.7055 5.47644 10.9998 5.47644C10.2942 5.47644 9.60355 5.68005 9.01076 6.06284C8.41797 6.44564 7.94823 6.99135 7.6579 7.6345C7.36758 8.27764 7.269 8.99091 7.37399 9.68869C7.47899 10.3865 7.7831 11.0391 8.24984 11.5684C6.74522 12.1761 5.48469 13.2658 4.66568 14.6667C4.01296 13.5549 3.66808 12.2893 3.66651 11C3.66651 9.05512 4.43913 7.18986 5.81439 5.81459C7.18966 4.43932 9.05492 3.66671 10.9998 3.66671C12.9448 3.66671 14.81 4.43932 16.1853 5.81459C17.5606 7.18986 18.3332 9.05512 18.3332 11C18.3316 12.2893 17.9867 13.5549 17.334 14.6667Z" fill="white"/>
</g>
</svg>
