<svg width="22" height="22" viewBox="0 0 22 22" fill="none" xmlns="http://www.w3.org/2000/svg">
<g id="vuesax/outline/radio" clip-path="url(#clip0_39_144)">
<path id="Vector" fill-rule="evenodd" clip-rule="evenodd" d="M6.41683 20.8542C3.2635 20.8542 1.146 18.7367 1.146 15.5834V9.16671C1.146 6.01337 3.2635 3.89587 6.41683 3.89587H15.5835C18.7368 3.89587 20.8543 6.01337 20.8543 9.16671V15.5834C20.8543 18.7367 18.7368 20.8542 15.5835 20.8542H6.41683ZM2.521 9.16671V15.5834C2.521 17.9484 4.05183 19.4792 6.41683 19.4792H15.5835C17.9485 19.4792 19.4793 17.9484 19.4793 15.5834V9.16671C19.4793 6.80171 17.9485 5.27087 15.5835 5.27087H6.41683C4.05183 5.27087 2.521 6.80171 2.521 9.16671Z" fill="white"/>
<path id="Vector_2" d="M5.729 4.58337V1.83337C5.729 1.45754 6.04067 1.14587 6.4165 1.14587C6.79234 1.14587 7.104 1.45754 7.104 1.83337V4.58337C7.104 4.95921 6.79234 5.27087 6.4165 5.27087C6.04067 5.27087 5.729 4.95921 5.729 4.58337Z" fill="white"/>
<path id="Vector_3" fill-rule="evenodd" clip-rule="evenodd" d="M4.8125 12.375C4.8125 10.7342 6.15083 9.39587 7.79167 9.39587C9.4325 9.39587 10.7708 10.7342 10.7708 12.375C10.7708 14.0159 9.4325 15.3542 7.79167 15.3542C6.15083 15.3542 4.8125 14.0159 4.8125 12.375ZM6.1875 12.375C6.1875 13.255 6.91167 13.9792 7.79167 13.9792C8.67167 13.9792 9.39583 13.255 9.39583 12.375C9.39583 11.495 8.67167 10.7709 7.79167 10.7709C6.91167 10.7709 6.1875 11.495 6.1875 12.375Z" fill="white"/>
<path id="Vector_4" d="M13.2915 10.7709C12.9157 10.7709 12.604 10.4592 12.604 10.0834C12.604 9.70754 12.9157 9.39587 13.2915 9.39587H16.9582C17.334 9.39587 17.6457 9.70754 17.6457 10.0834C17.6457 10.4592 17.334 10.7709 16.9582 10.7709H13.2915Z" fill="white"/>
<path id="Vector_5" d="M13.2915 14.4375C12.9157 14.4375 12.604 14.1258 12.604 13.75C12.604 13.3742 12.9157 13.0625 13.2915 13.0625H13.7498C14.1257 13.0625 14.4373 13.3742 14.4373 13.75C14.4373 14.1258 14.1257 14.4375 13.7498 14.4375H13.2915Z" fill="white"/>
<path id="Vector_6" d="M16.5 14.4375C16.1242 14.4375 15.8125 14.1258 15.8125 13.75C15.8125 13.3742 16.1242 13.0625 16.5 13.0625H16.9583C17.3342 13.0625 17.6458 13.3742 17.6458 13.75C17.6458 14.1258 17.3342 14.4375 16.9583 14.4375H16.5Z" fill="white"/>
</g>
<defs>
<clipPath id="clip0_39_144">
<rect width="22" height="22" fill="white"/>
</clipPath>
</defs>
</svg>
