<svg width="11" height="11" viewBox="0 0 11 11" fill="none" xmlns="http://www.w3.org/2000/svg">
<g id="search 1" clip-path="url(#clip0_29_191)">
<g id="01 align center">
<path id="Vector" d="M11 10.3519L8.12994 7.48185C8.87547 6.57004 9.24203 5.40656 9.15378 4.23207C9.06554 3.05758 8.52924 1.96193 7.65583 1.17176C6.78242 0.381589 5.63871 -0.0426522 4.46127 -0.0132127C3.28384 0.0162269 2.16276 0.497095 1.32993 1.32993C0.497095 2.16276 0.0162269 3.28384 -0.0132127 4.46127C-0.0426522 5.63871 0.381589 6.78242 1.17176 7.65583C1.96193 8.52924 3.05758 9.06554 4.23207 9.15378C5.40656 9.24203 6.57004 8.87547 7.48185 8.12994L10.3519 11L11 10.3519ZM4.58335 8.25002C3.85816 8.25002 3.14924 8.03498 2.54626 7.63208C1.94328 7.22918 1.47332 6.65652 1.1958 5.98653C0.918276 5.31653 0.845663 4.57929 0.987143 3.86802C1.12862 3.15676 1.47784 2.50342 1.99063 1.99063C2.50342 1.47784 3.15676 1.12862 3.86802 0.987143C4.57929 0.845663 5.31653 0.918276 5.98653 1.1958C6.65652 1.47332 7.22918 1.94328 7.63208 2.54626C8.03498 3.14924 8.25002 3.85816 8.25002 4.58335C8.24893 5.55548 7.86227 6.48748 7.17487 7.17487C6.48748 7.86227 5.55548 8.24893 4.58335 8.25002Z" fill="white"/>
</g>
</g>
<defs>
<clipPath id="clip0_29_191">
<rect width="11" height="11" fill="white"/>
</clipPath>
</defs>
</svg>
