<svg width="22" height="22" viewBox="0 0 22 22" fill="none" xmlns="http://www.w3.org/2000/svg">
<g id="Frame">
<path id="Vector" d="M11.0001 2.0625C10.1925 2.0625 9.38561 2.20756 8.61533 2.49756C8.46469 2.55437 8.33876 2.66224 8.25949 2.80237C7.9095 3.41957 7.63348 4.0635 7.36789 4.71045C6.67558 4.61518 5.97967 4.53219 5.26914 4.52649C5.14394 4.52557 5.02087 4.55885 4.9132 4.62274C4.80553 4.68663 4.71735 4.77871 4.65817 4.88904C3.56344 5.85496 2.82439 7.14102 2.53525 8.5669C2.46931 8.67362 2.43383 8.79635 2.43265 8.92179C2.43146 9.04724 2.46462 9.17062 2.52853 9.27857C2.88977 9.88878 3.31094 10.4484 3.73972 11C3.31107 11.5518 2.88971 12.1119 2.52853 12.7214C2.46514 12.8291 2.43227 12.9519 2.43346 13.0769C2.43464 13.2018 2.46983 13.324 2.53525 13.4304C2.82423 14.8582 3.56293 16.147 4.65952 17.1136L4.66086 17.1163C4.72054 17.2253 4.8086 17.316 4.9157 17.3789C5.0228 17.4418 5.14494 17.4745 5.26914 17.4735C5.97967 17.4678 6.67558 17.3848 7.36789 17.2896C7.63348 17.9365 7.9095 18.5804 8.25949 19.1976C8.33876 19.3378 8.46469 19.4456 8.61533 19.5024C10.1559 20.0824 11.8456 20.0824 13.3862 19.5024C13.5368 19.4456 13.6628 19.3378 13.742 19.1976C14.092 18.5805 14.3667 17.9365 14.6323 17.2896C15.325 17.3849 16.0214 17.4678 16.7324 17.4735C16.8574 17.4742 16.9801 17.4408 17.0876 17.3769C17.195 17.313 17.2829 17.2211 17.342 17.111C18.4382 16.1438 19.1793 14.8558 19.4676 13.4277C19.5321 13.3214 19.5666 13.1995 19.5673 13.0751C19.568 12.9508 19.5349 12.8285 19.4716 12.7214C19.1104 12.1112 18.6892 11.5516 18.2605 11C18.6896 10.4482 19.1105 9.88856 19.4716 9.27857C19.5356 9.17062 19.5687 9.04724 19.5675 8.92179C19.5664 8.79635 19.5309 8.67362 19.4649 8.5669C19.1759 7.1418 18.4372 5.85608 17.3434 4.89038C17.2844 4.7798 17.1962 4.68745 17.0886 4.62332C16.9809 4.55918 16.8577 4.5257 16.7324 4.52649C16.0214 4.53219 15.325 4.61506 14.6323 4.71045C14.3667 4.06354 14.092 3.41953 13.742 2.80237C13.6628 2.66224 13.5368 2.55437 13.3862 2.49756C12.6159 2.20756 11.8077 2.0625 11.0001 2.0625ZM11.0001 3.4375C11.5638 3.4375 12.1223 3.56264 12.6678 3.74097C13.0108 4.37263 13.3249 5.01279 13.5715 5.67456C13.6274 5.82487 13.7342 5.95089 13.8732 6.03083C14.0122 6.11076 14.1748 6.13959 14.3329 6.11231C15.0194 5.99281 15.7314 5.94476 16.4504 5.92566C17.3073 6.68613 17.8876 7.69676 18.1195 8.81934C17.7423 9.43034 17.3439 10.0213 16.8949 10.5596C16.7918 10.6832 16.7353 10.839 16.7353 11C16.7353 11.161 16.7918 11.3168 16.8949 11.4404C17.3436 11.979 17.7423 12.5698 18.1195 13.1807C17.8876 14.3032 17.3073 15.3139 16.4504 16.0743C15.7314 16.0552 15.0194 16.0072 14.3329 15.8877C14.1748 15.8604 14.0122 15.8892 13.8732 15.9692C13.7342 16.0491 13.6274 16.1751 13.5715 16.3254C13.3249 16.9872 13.0108 17.6274 12.6678 18.259C11.5768 18.6157 10.4233 18.6157 9.33237 18.259C8.98943 17.6274 8.67666 16.9872 8.43002 16.3254C8.37405 16.1749 8.26713 16.0487 8.12781 15.9687C7.98849 15.8887 7.82557 15.8601 7.66733 15.8877C6.98084 16.0072 6.27004 16.0552 5.55112 16.0743C4.69426 15.3139 4.11259 14.3033 3.88071 13.1807C4.25799 12.5701 4.65773 11.9798 5.10666 11.4404C5.20977 11.3168 5.26624 11.161 5.26624 11C5.26624 10.839 5.20977 10.6832 5.10666 10.5596C4.65768 10.0207 4.25941 9.42921 3.88205 8.81799C4.11417 7.69607 4.6947 6.68576 5.55112 5.92566C6.27004 5.94476 6.98084 5.99282 7.66733 6.11231C7.82557 6.13992 7.98849 6.11127 8.12781 6.03131C8.26713 5.95134 8.37405 5.82513 8.43002 5.67456C8.67666 5.01281 8.98943 4.37261 9.33237 3.74097C9.87785 3.56264 10.4364 3.4375 11.0001 3.4375ZM11.0001 7.5625C9.91155 7.5625 9.00764 7.99546 8.42331 8.65283C7.83898 9.31021 7.56259 10.1597 7.56259 11C7.56259 11.8403 7.83898 12.6898 8.42331 13.3472C9.00764 14.0045 9.91155 14.4375 11.0001 14.4375C12.0886 14.4375 12.9925 14.0045 13.5769 13.3472C14.1612 12.6898 14.4376 11.8403 14.4376 11C14.4376 10.1597 14.1612 9.31021 13.5769 8.65283C12.9925 7.99546 12.0886 7.5625 11.0001 7.5625ZM11.0001 8.9375C11.7449 8.9375 12.216 9.19204 12.5483 9.56592C12.8806 9.93979 13.0626 10.4653 13.0626 11C13.0626 11.5347 12.8806 12.0602 12.5483 12.4341C12.216 12.808 11.7449 13.0625 11.0001 13.0625C10.2553 13.0625 9.78421 12.808 9.45187 12.4341C9.11954 12.0602 8.93759 11.5347 8.93759 11C8.93759 10.4653 9.11954 9.93979 9.45187 9.56592C9.78421 9.19204 10.2553 8.9375 11.0001 8.9375Z" fill="white"/>
</g>
</svg>
