<svg width="21" height="22" viewBox="0 0 21 22" fill="none" xmlns="http://www.w3.org/2000/svg">
<g id="user-single-neutral-male--close-geometric-human-person-single-up-user-male">
<g id="user-single-neutral-male--close-geometric-human-person-single-up-user-male_2">
<path id="Vector" d="M19.77 20.2857C19.1402 18.4154 17.9031 16.784 16.2372 15.6266C14.5711 14.4691 12.5622 13.8455 10.5 13.8455C8.43777 13.8455 6.42883 14.4691 4.7628 15.6266C3.09678 16.784 1.85971 18.4154 1.22998 20.2857H19.77Z" stroke="white" stroke-width="2" stroke-linecap="round" stroke-linejoin="round"/>
<path id="Vector_2" d="M10.4999 13.8571C14.0059 13.8571 16.8481 11.1503 16.8481 7.81129C16.8481 4.47229 14.0059 1.7655 10.4999 1.7655C6.994 1.7655 4.15186 4.47229 4.15186 7.81129C4.15186 11.1503 6.994 13.8571 10.4999 13.8571Z" stroke="white" stroke-width="2" stroke-linecap="round" stroke-linejoin="round"/>
<path id="Ellipse 592" d="M12.5729 10.1505C12.5729 10.1505 12.0462 11.1376 10.5001 11.1376C8.95397 11.1376 8.42725 10.1505 8.42725 10.1505" stroke="white" stroke-width="2" stroke-linecap="round" stroke-linejoin="round"/>
<path id="Intersect" d="M16.46 6.66022C16.446 6.6603 16.4322 6.66035 16.4185 6.66035C14.6142 6.66035 12.9945 5.8915 11.8855 4.67185C10.7765 5.89153 9.15673 6.66039 7.35256 6.66039C6.30488 6.66039 5.31936 6.40112 4.45996 5.94486C5.2674 3.51928 7.60614 1.7655 10.3654 1.7655C13.3893 1.7655 15.9081 3.87175 16.46 6.66022Z" stroke="white" stroke-width="2" stroke-linecap="round" stroke-linejoin="round"/>
</g>
</g>
</svg>
